<svg width="146.000000" height="35.000000" viewBox="0 0 146 35" fill="none" xmlns="http://www.w3.org/2000/svg" xmlns:xlink="http://www.w3.org/1999/xlink">
	<desc>
			Created with Pixso.
	</desc>
	<defs/>
	<path d="M17.5 0L15.03 9.1L8.03 2.77L10.88 11.77L1.58 10.23L8.83 16.25L0.17 19.99L9.54 21.13L4.27 28.96L12.76 24.86L12.56 34.29L17.5 26.25L22.43 34.29L22.23 24.86L30.72 28.96L25.45 21.13L34.82 19.99L26.16 16.25L33.41 10.23L24.11 11.77L26.96 2.77L19.96 9.1L17.5 0Z" fill="#598D66" fill-opacity="1.000000" fill-rule="evenodd"/>
	<path d="M44.26 9.95L47.34 9.95L47.34 24.5L44.26 24.5L44.26 9.95ZM65.28 24.5L62.25 24.5L62.25 9.95L65.28 9.95L65.28 17.73L65.44 17.73L68.93 13.59L72.4 13.59L68.36 18.31L72.61 24.5L69.07 24.5L66.09 20.1L65.28 21.03L65.28 24.5ZM86.92 24.5L83.85 24.5L83.85 9.95L86.92 9.95L86.92 15.95L93.16 15.95L93.16 9.95L96.24 9.95L96.24 24.5L93.16 24.5L93.16 18.48L86.92 18.48L86.92 24.5ZM54.9 15.96C53.68 15.96 52.84 16.78 52.84 18.19L52.84 24.5L49.81 24.5L49.81 13.59L52.7 13.59L52.7 15.51L52.82 15.51C53.31 14.24 54.48 13.45 56.11 13.45C58.38 13.45 59.87 15.01 59.87 17.55L59.87 24.5L56.84 24.5L56.84 18.09C56.85 16.76 56.12 15.96 54.9 15.96ZM109.01 19.08C109.01 22.44 106.95 24.71 103.64 24.71C100.33 24.71 98.27 22.44 98.27 19.08C98.27 15.7 100.33 13.45 103.64 13.45C106.95 13.45 109.01 15.7 109.01 19.08ZM127.85 13.45C130.61 13.45 132.23 14.69 132.5 16.7L129.73 16.87C129.58 16.16 128.95 15.59 127.9 15.59C126.97 15.59 126.23 16.01 126.23 16.67C126.23 17.2 126.6 17.54 127.62 17.76L129.59 18.16C131.71 18.59 132.74 19.54 132.75 21.12C132.74 23.26 130.72 24.71 127.89 24.71C125 24.71 123.22 23.42 122.94 21.34L125.92 21.18C126.1 22.07 126.82 22.53 127.9 22.53C128.95 22.53 129.66 22.07 129.67 21.42C129.66 20.87 129.23 20.53 128.27 20.33L126.38 19.96C124.25 19.53 123.22 18.47 123.23 16.84C123.22 14.73 125.06 13.45 127.85 13.45ZM144.57 21.37C144.15 23.4 142.33 24.71 139.63 24.71C136.27 24.71 134.22 22.55 134.22 19.09C134.22 15.73 136.3 13.45 139.51 13.45C142.39 13.45 144.64 15.28 144.64 18.98L144.64 19.81L137.2 19.81L137.2 19.82C137.2 21.45 138.17 22.45 139.68 22.45C140.69 22.45 141.47 22.01 141.78 21.18L144.57 21.37ZM115.9 22.08C116.99 22.08 117.99 21.31 117.98 19.85L117.98 13.59L121.01 13.59L121.01 24.5L118.1 24.5L118.1 22.51L117.99 22.51C117.5 23.79 116.32 24.64 114.68 24.64C112.48 24.64 110.99 23.08 110.98 20.53L110.98 13.59L114.01 13.59L114.01 19.99C114.02 21.28 114.76 22.08 115.9 22.08ZM139.56 15.7C138.22 15.7 137.27 16.7 137.2 17.94L141.79 17.94C141.78 16.64 140.87 15.7 139.56 15.7ZM101.35 19.06C101.35 20.96 102.13 22.37 103.66 22.37C105.16 22.37 105.94 20.96 105.94 19.06C105.94 17.16 105.16 15.75 103.66 15.75C102.13 15.75 101.35 17.16 101.35 19.06ZM77.36 22.98C77.35 23.92 76.56 24.68 75.65 24.68C74.71 24.68 73.94 23.92 73.94 22.98C73.94 22.04 74.71 21.29 75.65 21.29C76.56 21.29 77.35 22.04 77.36 22.98Z" fill="#598D66" fill-opacity="1.000000" fill-rule="evenodd"/>
</svg>
